<svg id="Layer_1" data-name="Layer 1" xmlns="http://www.w3.org/2000/svg" viewBox="0 0 128 128"><defs><style>.cls-1{fill:#fff;}</style></defs><path d="M70.14,9.3A44.47,44.47,0,0,1,75,8.14,10.68,10.68,0,0,1,86.36,15c.67,1.67,1.4,2,3.16,1.58A10.51,10.51,0,0,1,102.2,26.73c.08,17.93.24,35.86.08,53.79a32.82,32.82,0,0,1-8.81,22.18c-.28.31-.53.65-1,1.21,2.26,1.46,2,3.74,1.94,6,0,4,0,8,0,12,0,2.68-1.17,3.91-3.88,4-2.22.08-4.43,0-6.65,0l-44.58,0c-4.35,0-5.12-.74-5.14-5.09s0-8.71,0-13.07c0-.56-.11-1.34.2-1.66,1.72-1.73.58-2.9-.54-4.3C27.61,94,25.42,85,25.67,75.14,26.14,57.08,26.28,39,26.74,21a21.32,21.32,0,0,1,1.74-8.47c2.77-5.74,10.57-8,16.26-5.1,1.58.81,2.39.81,3.62-.76C53.49.09,64.51.75,69.09,7.71ZM62,74.08a16,16,0,0,0,.77,1.51c2.59,3.27,2.91,7.18,3.08,11.12.06,1.38-.71,2.37-2,2.17-.64-.1-1.29-1.25-1.58-2.06A14.51,14.51,0,0,1,62,84.07c-1-6.76-3.87-9.44-10.7-9.85-1.2-.08-2.17-.42-2.2-1.79-.05-1.53,1-1.87,2.29-1.87,3.43,0,6.86.07,10.28,0a54.37,54.37,0,0,0,7.67-.42,7.24,7.24,0,0,0,5.35-9.71c-1.32-3.52-3.63-5-8-5-7.14,0-14.28,0-21.42,0-2.65,0-5.29-.1-7.93,0-4.16.21-6.43,2.53-6.51,6.67-.1,5.35,0,10.71-.07,16.06a31.79,31.79,0,0,0,9.4,23.16A11.16,11.16,0,0,0,49,105.19c11-.18,22,.06,33,.08a3.78,3.78,0,0,0,2.2-.66c8-6,13-14,13.19-24.09.27-17.28.07-34.56,0-51.84a11.64,11.64,0,0,0-.85-4.37A5,5,0,0,0,88,23.06a8,8,0,0,0-1.78,5.77q0,11.14,0,22.28a7.56,7.56,0,0,1-.2,2.75,2.55,2.55,0,0,1-1.77,1.37c-.51,0-1.23-.76-1.59-1.35-.25-.42-.06-1.11-.07-1.68,0-10.78,0-21.56-.1-32.34-.06-5.28-4.79-8.3-9.35-6.15-2.51,1.18-3.56,3.39-3.61,6.1-.21,10.13-.44,20.27-.52,30.4,0,.64,1,1.63,1.8,1.88,5.29,1.81,8.78,6.79,8,11.72-1,6.37-5,10.09-11.15,10.26C66,74.12,64.25,74.08,62,74.08ZM49.79,51.52c4.94,0,9.56.06,14.17-.08.44,0,1.2-1.25,1.22-1.94Q65.69,31.76,66,14c.07-3.52-3.42-6.77-7.35-7-4.17-.21-7.6,2.43-7.84,6.22-.2,3-.14,6-.22,9C50.34,31.85,50.07,41.46,49.79,51.52ZM64.35,109v0c-7.79,0-15.57,0-23.35,0-1.57,0-2,.49-1.92,2,.1,2.5.14,5,0,7.5-.09,1.86.52,2.52,2.43,2.46,4.42-.13,8.85-.07,13.28-.07,10.92,0,21.85,0,32.77,0,1.51,0,2-.53,1.94-2-.12-2.71-.1-5.43-.08-8.14,0-1.24-.35-1.76-1.73-1.75C79.91,109.08,72.13,109,64.35,109Zm-33-55.63c3.88-2.2,8.17-2,12.43-1.81,1.85.09,2.47-.53,2.5-2.41.14-10.34.41-20.68.62-31A6,6,0,0,0,44.49,13,7.94,7.94,0,0,0,36,11.87c-3.14,1.38-4.23,4-4.3,7.25-.12,5.71-.32,11.41-.39,17.11S31.34,47.47,31.34,53.41Z"/><path class="cls-1" d="M62,74.08c2.25,0,4,0,5.77,0C74,73.9,78,70.18,78.92,63.81c.73-4.93-2.76-9.91-8-11.72-.76-.25-1.81-1.24-1.8-1.88.08-10.13.31-20.27.52-30.4,0-2.71,1.1-4.92,3.61-6.1,4.56-2.15,9.29.87,9.35,6.15.15,10.78.08,21.56.1,32.34,0,.57-.18,1.26.07,1.68.36.59,1.08,1.39,1.59,1.35a2.55,2.55,0,0,0,1.77-1.37,7.56,7.56,0,0,0,.2-2.75q0-11.14,0-22.28A8,8,0,0,1,88,23.06a5,5,0,0,1,8.45,1.25,11.64,11.64,0,0,1,.85,4.37c.07,17.28.27,34.56,0,51.84-.16,10.14-5.17,18-13.19,24.09a3.78,3.78,0,0,1-2.2.66c-11,0-22-.26-33-.08a11.16,11.16,0,0,1-8.81-3.85,31.79,31.79,0,0,1-9.4-23.16c.06-5.35,0-10.71.07-16.06.08-4.14,2.35-6.46,6.51-6.67,2.64-.13,5.28,0,7.93,0,7.14,0,14.28,0,21.42,0,4.42,0,6.73,1.5,8,5a7.24,7.24,0,0,1-5.35,9.71,54.37,54.37,0,0,1-7.67.42c-3.42.06-6.85,0-10.28,0-1.29,0-2.34.34-2.29,1.87,0,1.37,1,1.71,2.2,1.79,6.83.41,9.73,3.09,10.7,9.85a14.51,14.51,0,0,0,.24,2.75c.29.81.94,2,1.58,2.06,1.29.2,2.06-.79,2-2.17-.17-3.94-.49-7.85-3.08-11.12A16,16,0,0,1,62,74.08Z"/><path class="cls-1" d="M49.79,51.52c.28-10.06.55-19.67.82-29.29.08-3,0-6,.22-9C51.07,9.45,54.5,6.81,58.67,7c3.93.2,7.42,3.45,7.35,7q-.36,17.76-.84,35.51c0,.69-.78,1.92-1.22,1.94C59.35,51.58,54.73,51.52,49.79,51.52Z"/><path class="cls-1" d="M64.35,109c7.78,0,15.56,0,23.34,0,1.38,0,1.74.51,1.73,1.75,0,2.71,0,5.43.08,8.14.06,1.48-.43,2-1.94,2-10.92,0-21.85,0-32.77,0-4.43,0-8.86-.06-13.28.07-1.91.06-2.52-.6-2.43-2.46.14-2.49.1-5,0-7.5-.06-1.47.35-2,1.92-2,7.78.08,15.56,0,23.35,0Z"/><path class="cls-1" d="M31.34,53.41c0-5.94-.06-11.56,0-17.18s.27-11.4.39-17.11c.07-3.24,1.16-5.87,4.3-7.25A7.94,7.94,0,0,1,44.49,13a6,6,0,0,1,2.4,5.23c-.21,10.33-.48,20.67-.62,31,0,1.88-.65,2.5-2.5,2.41C39.51,51.39,35.22,51.21,31.34,53.41Z"/></svg>