<svg id="Layer_1" data-name="Layer 1" xmlns="http://www.w3.org/2000/svg" viewBox="0 0 128 128"><defs><style>.cls-1{fill:#fff;}</style></defs><path d="M32.44,109.16a24.48,24.48,0,0,1-4.67,1.09c-4.35.15-8.71,0-13.07.06-3.09,0-4.24-1.13-4.24-4.25q0-20.57,0-41.13c0-3.64-.06-7.28,0-10.93,0-2.93,1.12-3.93,4.08-4q7.07,0,14.14,0c.62,0,1.5,0,1.82.34,1.54,1.75,2.51.57,3.89-.32a103.15,103.15,0,0,1,11.94-7A34,34,0,0,0,62.52,27.17c2.06-4,3.76-8.17,5.89-12.12a21.09,21.09,0,0,1,4.34-5.77c5.52-4.92,12.82-3,15.63,3.87,2.53,6.14,1.71,12.18-.39,18.18-1,2.93-2.3,5.79-3.55,8.88,2.08.26,4,.55,5.83.71,4.76.41,9.53.73,14.29,1.15,7.81.68,13.33,6.65,13,14.27a12.78,12.78,0,0,1-4.81,9.56c1.07,3,2.52,5.6,2.91,8.39a12.3,12.3,0,0,1-4.44,11.27,1.76,1.76,0,0,0-.53,2.53c3,6.14,1.76,11.46-3.55,15.78-.79.65-1.39,1.11-.67,2.44,3.2,6-1.1,14.37-7.88,15a70,70,0,0,1-13-.38c-7.17-.7-14.3-1.84-21.47-2.56-4-.4-8-.06-12-.52a33.29,33.29,0,0,1-19-9,2.65,2.65,0,0,0-.54-.32ZM71.66,56.53A21.24,21.24,0,0,0,69.89,60a30.39,30.39,0,0,1-8.24,14,27.47,27.47,0,0,1-14.57,7.15c-1.18.2-2.56,0-2.55-1.48a2.71,2.71,0,0,1,1.7-2c10.33-2.17,17-8.17,19.93-18.38A12.76,12.76,0,0,1,68.36,55a94,94,0,0,0,13.41-21.3c2.2-5.06,4-10.3,2.84-16C84,15,83.1,12.09,79.84,11.55c-3.1-.5-4.8,1.92-6.1,4.21a110.38,110.38,0,0,0-5.37,10.71C64,36.47,57.19,43.86,47,48.11A35.3,35.3,0,0,0,32.1,59.57a4.49,4.49,0,0,0-.88,2.51q-.11,17.78,0,35.56A4.75,4.75,0,0,0,32,100.2c4.38,6.43,10.57,10.31,18,12.22a36.59,36.59,0,0,0,7.63.78c3.46.12,6.92,0,10.34,0-1-5.54-1.84-6.48,3.8-12.58a11.08,11.08,0,0,1-3.63-9.37c.26-4,2.85-6.33,5.79-8.67-3-3-4.4-6.36-3.83-10.38s3.08-6.72,6.11-8.66C74.64,61.19,73.29,59.07,71.66,56.53ZM15.42,80.1c0,7.72,0,15.43,0,23.14,0,1.65.41,2.31,2.18,2.19a53.65,53.65,0,0,1,7.06,0c2,.13,2.85-.5,2.77-2.61-.12-3.63,0-7.28,0-10.92,0-11.64-.08-23.28-.06-34.91,0-1.54-.34-2.17-2-2.06-2.64.17-5.29.12-7.93.06-1.46,0-2,.44-1.95,2C15.46,64.68,15.42,72.39,15.42,80.1Zm69.8-34.75c-5.11,0-9.31,3.81-9.51,8.2s3,8.19,7.91,8.73Q93.4,63.35,103.21,64a9,9,0,0,0,9.42-7.6,8.82,8.82,0,0,0-7.6-9.33C98.31,46.33,91.55,45.9,85.22,45.35ZM82.71,65.82c-5,0-8.88,3.34-9.09,7.84-.16,3.63,2.75,7.6,7.86,8,7.18.5,14.34,1.29,21.52,1.85,4.13.32,7.43-2.92,7.76-7.41s-2.47-7.89-6.54-8.27l-9.59-.87ZM99,101.09c4.77,0,8-2.66,8.24-6.35A6.94,6.94,0,0,0,100.67,87q-10.42-1.07-20.88-1.84c-4.12-.3-8,3-8.16,6.85-.13,2.82,1.81,6.87,5.91,7.28C84.91,100,92.31,100.54,99,101.09Zm-6.42,15.39v0l2.55.25c4,.36,7.07-2,7.34-5.47s-2.6-6.49-6.51-6.72c-2.06-.12-4.12-.32-6.18-.48-4.18-.33-8.37-.75-12.56-.93a6.11,6.11,0,0,0-6,4.54,6,6,0,0,0,2.64,6.48,10.2,10.2,0,0,0,4,1.16C82.75,115.76,87.66,116.09,92.56,116.48Z"/><path class="cls-1" d="M71.66,56.53c1.63,2.54,3,4.66,4.5,7-3,1.94-5.55,4.66-6.11,8.66s.85,7.4,3.83,10.38c-2.94,2.34-5.53,4.7-5.79,8.67a11.08,11.08,0,0,0,3.63,9.37c-5.64,6.1-4.75,7-3.8,12.58-3.42,0-6.88.09-10.34,0a36.59,36.59,0,0,1-7.63-.78c-7.42-1.91-13.61-5.79-18-12.22a4.75,4.75,0,0,1-.78-2.56q-.06-17.79,0-35.56a4.49,4.49,0,0,1,.88-2.51A35.3,35.3,0,0,1,47,48.11c10.17-4.25,17-11.64,21.35-21.64a110.38,110.38,0,0,1,5.37-10.71c1.3-2.29,3-4.71,6.1-4.21,3.26.54,4.19,3.4,4.77,6.18,1.19,5.68-.64,10.92-2.84,16A94,94,0,0,1,68.36,55a12.76,12.76,0,0,0-2.2,4.31c-2.92,10.21-9.6,16.21-19.93,18.38a2.71,2.71,0,0,0-1.7,2c0,1.5,1.37,1.68,2.55,1.48A27.47,27.47,0,0,0,61.65,74a30.39,30.39,0,0,0,8.24-14A21.24,21.24,0,0,1,71.66,56.53Z"/><path class="cls-1" d="M15.42,80.1c0-7.71,0-15.42,0-23.13,0-1.54.49-2,1.95-2,2.64.06,5.29.11,7.93-.06,1.69-.11,2,.52,2,2.06,0,11.63,0,23.27.06,34.91,0,3.64-.08,7.29,0,10.92.08,2.11-.76,2.74-2.77,2.61a53.65,53.65,0,0,0-7.06,0c-1.77.12-2.19-.54-2.18-2.19C15.46,95.53,15.42,87.82,15.42,80.1Z"/><path class="cls-1" d="M85.22,45.35c6.33.55,13.09,1,19.81,1.76a8.82,8.82,0,0,1,7.6,9.33,9,9,0,0,1-9.42,7.6q-9.81-.71-19.59-1.76c-4.94-.54-8.12-4.2-7.91-8.73S80.11,45.38,85.22,45.35Z"/><path class="cls-1" d="M82.71,65.82l11.92,1.1,9.59.87c4.07.38,6.86,3.92,6.54,8.27s-3.63,7.73-7.76,7.41c-7.18-.56-14.34-1.35-21.52-1.85-5.11-.36-8-4.33-7.86-8C73.83,69.16,77.73,65.85,82.71,65.82Z"/><path class="cls-1" d="M99,101.09c-6.67-.55-14.07-1.08-21.44-1.82-4.1-.41-6-4.46-5.91-7.28.19-3.9,4-7.15,8.16-6.85q10.45.77,20.88,1.84a6.94,6.94,0,0,1,6.55,7.76C107,98.43,103.75,101.13,99,101.09Z"/><path class="cls-1" d="M92.56,116.48c-4.9-.39-9.81-.72-14.7-1.21a10.2,10.2,0,0,1-4-1.16,6,6,0,0,1-2.64-6.48,6.11,6.11,0,0,1,6-4.54c4.19.18,8.38.6,12.56.93,2.06.16,4.12.36,6.18.48,3.91.23,6.78,3.17,6.51,6.72s-3.39,5.83-7.34,5.47l-2.55-.25Z"/></svg>