<svg id="Layer_1" data-name="Layer 1" xmlns="http://www.w3.org/2000/svg" viewBox="0 0 128 128"><defs><style>.cls-1{fill:#fff;}</style></defs><path d="M95.16,17.56c3.19-.83,6.27-1.19,9.11.79a10.51,10.51,0,0,1,4.92,9.22c-.28,11.78-.67,23.55-.93,35.33-.13,5.49-.12,11,0,16.5a34.19,34.19,0,0,1-10.9,26.06,4.57,4.57,0,0,0-1.54,3.73c.11,4.36.06,8.71,0,13.07,0,3-1.26,4.24-4.34,4.24q-24.54,0-49.08,0c-6.71,0-6.83-.14-6.88-6.81,0-3.65,0-7.29-.08-10.93a3.56,3.56,0,0,0-1-2.4c-6-5-8.38-12.1-10.82-19.13-1.49-4.31-2.92-8.64-4.15-13a22.71,22.71,0,0,1-.67-5.94c-.06-7.64,0-15.28,0-22.93,0-7.12,4.73-12.5,11.76-13.08,2-.15,4,.63,6.31,1a13.4,13.4,0,0,0,.19-1.57c.18-4.85.1-9.72.54-14.55A11.76,11.76,0,0,1,54.08,7.74c1.87.85,2.71.82,4.15-.9C63.41.68,72.69,1.28,77.42,8c1.06,1.49,1.89,1.83,3.65,1.26,5.72-1.82,11.09.91,13.31,6.52C94.61,16.33,94.87,16.9,95.16,17.56ZM65.4,105.78v.08c7.21,0,14.42,0,21.64,0a5.61,5.61,0,0,0,3-.75c8.22-5.89,12.84-13.86,13.14-24,.24-8,.1-16,.26-24,.2-9.91.56-19.83.76-29.75a5.74,5.74,0,0,0-4.32-5.47c-2.35-.34-4.63,1.38-5.41,4.18a10.12,10.12,0,0,0-.38,2.74q0,12.11,0,24.21c0,1.49-.19,2.88-2,2.92s-1.68-1.42-1.68-2.65c0-8.72,0-17.43-.08-26.14A51.5,51.5,0,0,0,90,18.55c-.86-4.8-5.74-6.44-9.49-3.39-1.88,1.52-2.36,3.67-2.39,5.93-.1,6.57-.1,13.14-.2,19.71-.07,4.35-.25,8.71-.35,13.06,0,1.29-.68,2.25-1.89,2-.68-.13-1.2-1.27-1.69-2-.16-.25,0-.7,0-1.06.23-12.49.52-25,.63-37.47a8.79,8.79,0,0,0-1.42-4.76A7.15,7.15,0,0,0,65,8c-3.11,1.1-4.59,3.37-4.7,7.38-.16,6.35-.28,12.71-.4,19.06q-.18,9.11-.3,18.21c0,1.39-.44,2.48-2,2.4s-1.74-1.24-1.74-2.48c0-1,0-2,0-3,.2-10.21.46-20.41.59-30.62.05-4.27-2.87-7.26-6.76-7.26a7.07,7.07,0,0,0-7.26,7.13C42,32,41.73,45.22,41.24,58.42c-.09,2.31.64,3,2.75,3.54,8.77,2.19,15.49,7.1,19.35,15.47a24.61,24.61,0,0,1,2.42,12.88,2.73,2.73,0,0,1-1.84,1.76c-1.21.21-1.56-.8-1.61-2-.51-12-6.09-20.36-17.77-24.24-3.48-1.16-3.74-1.12-4.94,2.19-.1.27-.12.65-.31.79-.73.51-1.52.94-2.28,1.4-.37-.88-1.28-2-1-2.59,1.51-3.75,1.73-7.63,1.75-11.57s.24-8.14,0-12.2a7.16,7.16,0,0,0-4.92-6.43c-2.67-1.06-4.77.09-6.59,1.84a8.73,8.73,0,0,0-2.49,6.61c0,6.5,0,13,.06,19.5,0,2.7-.17,5.56.64,8.06,2.38,7.39,5.09,14.69,7.91,21.93,1.69,4.34,5.13,7.32,9,9.79a4.31,4.31,0,0,0,2.21.57C50.83,105.79,58.11,105.78,65.4,105.78Zm.47,3.86h0c-7.78,0-15.57.05-23.35,0-1.63,0-2.11.49-2,2.08.11,2.64.08,5.29,0,7.93,0,1.37.41,1.93,1.82,1.93q23.36-.06,46.71,0c1.27,0,1.81-.39,1.79-1.71,0-2.78-.07-5.57,0-8.35.06-1.56-.57-1.88-2-1.86C81.16,109.68,73.52,109.64,65.87,109.64Z"/><path class="cls-1" d="M65.4,105.78c-7.29,0-14.57,0-21.86,0a4.31,4.31,0,0,1-2.21-.57c-3.85-2.47-7.29-5.45-9-9.79-2.82-7.24-5.53-14.54-7.91-21.93-.81-2.5-.6-5.36-.64-8.06-.09-6.5,0-13-.06-19.5a8.73,8.73,0,0,1,2.49-6.61c1.82-1.75,3.92-2.9,6.59-1.84a7.16,7.16,0,0,1,4.92,6.43c.23,4.06,0,8.13,0,12.2S37.49,63.9,36,67.65c-.25.62.66,1.71,1,2.59.76-.46,1.55-.89,2.28-1.4.19-.14.21-.52.31-.79,1.2-3.31,1.46-3.35,4.94-2.19C56.22,69.74,61.8,78.06,62.31,90.1c0,1.17.4,2.18,1.61,2a2.73,2.73,0,0,0,1.84-1.76,24.61,24.61,0,0,0-2.42-12.88C59.48,69.06,52.76,64.15,44,62c-2.11-.52-2.84-1.23-2.75-3.54.49-13.2.77-26.4,1.15-39.61a7.07,7.07,0,0,1,7.26-7.13c3.89,0,6.81,3,6.76,7.26-.13,10.21-.39,20.41-.59,30.62,0,1,0,2,0,3,0,1.24.25,2.41,1.74,2.48s2-1,2-2.4q.13-9.1.3-18.21c.12-6.35.24-12.71.4-19.06.11-4,1.59-6.28,4.7-7.38a7.15,7.15,0,0,1,8.19,2.6,8.79,8.79,0,0,1,1.42,4.76c-.11,12.49-.4,25-.63,37.47,0,.36-.16.81,0,1.06.49.74,1,1.88,1.69,2,1.21.23,1.86-.73,1.89-2,.1-4.35.28-8.71.35-13.06.1-6.57.1-13.14.2-19.71,0-2.26.51-4.41,2.39-5.93,3.75-3.05,8.63-1.41,9.49,3.39a51.5,51.5,0,0,1,.44,8.53c.07,8.71,0,17.42.08,26.14,0,1.23-.06,2.68,1.68,2.65s2-1.43,2-2.92q-.07-12.11,0-24.21A10.12,10.12,0,0,1,94.49,26c.78-2.8,3.06-4.52,5.41-4.18a5.74,5.74,0,0,1,4.32,5.47c-.2,9.92-.56,19.84-.76,29.75-.16,8,0,16-.26,24-.3,10.18-4.92,18.15-13.14,24a5.61,5.61,0,0,1-3,.75c-7.22.06-14.43,0-21.64,0Z"/><path class="cls-1" d="M65.87,109.64c7.65,0,15.29,0,22.93,0,1.46,0,2.09.3,2,1.86-.1,2.78-.08,5.57,0,8.35,0,1.32-.52,1.71-1.79,1.71q-23.36,0-46.71,0c-1.41,0-1.87-.56-1.82-1.93.08-2.64.11-5.29,0-7.93-.07-1.59.41-2.1,2-2.08,7.78.08,15.57,0,23.35,0Z"/></svg>