<svg id="Layer_1" data-name="Layer 1" xmlns="http://www.w3.org/2000/svg" viewBox="0 0 128 128"><defs><style>.cls-1{fill:#fff;}</style></defs><path d="M48.07,29.85c.14-5.59.34-10.91.38-16.24A13.89,13.89,0,0,1,51,5.4C54.17,1,60.3-.84,66.22,1a12,12,0,0,1,8.44,11.61c0,4.57,0,9.14.19,13.7,0,.43,1,1.28,1.29,1.18,6-2.27,10.7-.2,14.62,4.56.94-.45,1.81-.91,2.71-1.3,6.91-3,15.17,2.16,15.24,11,.05,6.35.09,12.71,0,19.07a8.2,8.2,0,0,1-1,4.07c-2,3.19-1.94,6.67-1.83,10.15.25,7.46-1.1,14.52-5,20.92-1.4,2.29-3.11,4.39-4.84,6.8,2.31,1.15,2,3.38,2,5.53,0,4,0,8,0,12,0,3-1,4-4,4-12.78,0-25.57,0-38.36,0l-13.93,0c-2.9,0-4-1.13-4.05-4,0-4.28-.12-8.57,0-12.85a31.22,31.22,0,0,1,1-5.14c-1.91-3.08-4.29-6.38-6.1-10a32.2,32.2,0,0,1-3.38-14.26c0-4.36.22-8.73-.06-13.07-.2-3.1-1.45-6.15-1.56-9.25-.19-6-.57-12.18.33-18.1,1.23-8.05,11.35-12.27,18.56-8.37A11.8,11.8,0,0,0,48.07,29.85Zm17.56,43a3.61,3.61,0,0,0,.33,1c2.49,2.93,3.19,6.44,3.38,10.15.09,1.66-.07,3.37-2,3.37s-1.76-1.85-1.84-3.29c-.38-6.81-3-11-10.34-11.37-1.25-.06-2.64-.19-2.57-1.87S54,69,55.42,69c5.07,0,10.14.1,15.21,0,4.47-.07,8.19-3.57,8.11-7.49a8.2,8.2,0,0,0-8.49-7.77c-9.56.25-19.13,0-28.7.07-4.82,0-7.37,2.61-7.4,7.45q0,7.71,0,15.43a31.47,31.47,0,0,0,11.43,24.83,8.19,8.19,0,0,0,5.8,2.13q16.18-.15,32.36,0c1.59,0,3.07.13,4.43-.92a31.85,31.85,0,0,0,11.33-16c1.54-4.91,1.44-10,1.44-15,0-1.64-.62-1.72-2-1.78a23.44,23.44,0,0,1-6-1.14,9.07,9.07,0,0,1-2.51-1.74c-2.17,1.23-3.92,2.94-5.84,3.16-4.12.47-8.15.87-12.09,2.33-1.45.53-3.25.1-4.89.13C67,72.69,66.39,72.77,65.63,72.83Zm4.43-42.32h-.29c0-6,0-12,0-18,0-4.17-3.49-7.29-7.9-7.3-4.63,0-8.26,3-8.37,7.16-.3,11.92-.5,23.85-.78,35.77,0,1.34.32,2,1.78,1.94,4.64-.06,9.29-.05,13.93,0,1.34,0,1.69-.52,1.68-1.8C70,42.37,70.06,36.44,70.06,30.51Zm-2.28,88.88c7.71,0,15.43,0,23.14,0,1.64,0,2.12-.53,2.06-2.09-.1-2.72-.08-5.43,0-8.15,0-1.23-.3-1.74-1.7-1.72-5.21.1-10.43,0-15.64,0-10.28,0-20.57,0-30.85-.08-1.72,0-2.27.51-2.18,2.21a66.84,66.84,0,0,1,0,7.49c-.12,1.83.53,2.32,2.29,2.31C52.49,119.35,60.13,119.39,67.78,119.39ZM87.84,49.83h-.09c0-3.78.06-7.56,0-11.33a7.11,7.11,0,0,0-14.21.26c0,3.28,0,6.56.17,9.83a3,3,0,0,0,1.42,2.17c6.19,2.9,8.64,8.4,6.41,14.77-.44,1.24,0,1.57,1.16,1.43a5.48,5.48,0,0,0,5.13-5.58C87.91,57.53,87.84,53.68,87.84,49.83ZM103.69,51h0c0-3.22.07-6.43,0-9.65-.1-3.84-3.06-6.7-6.52-6.44-3.19.24-5.73,3.15-5.74,6.9q0,9.32.21,18.64c.07,3.19,3.15,6.16,6.08,6.12a6.42,6.42,0,0,0,6-6.36C103.71,57.12,103.69,54.05,103.69,51ZM31.8,53.86c5.69-4.09,6.88-3.75,13.14-3.79.78,0,1.57,0,2.35,0,1.15.06,1.76-.39,1.73-1.59-.08-2.78.06-5.58-.26-8.32a8.18,8.18,0,0,0-7.47-7.3c-4.06-.34-7.95,1.89-8.62,6C31.86,43.8,32,48.86,31.8,53.86Z"/><path class="cls-1" d="M65.63,72.83c.76-.06,1.36-.14,2-.15,1.64,0,3.44.4,4.89-.13,3.94-1.46,8-1.86,12.09-2.33,1.92-.22,3.67-1.93,5.84-3.16a9.07,9.07,0,0,0,2.51,1.74,23.44,23.44,0,0,0,6,1.14c1.42.06,2,.14,2,1.78,0,5.07.1,10.14-1.44,15a31.85,31.85,0,0,1-11.33,16c-1.36,1-2.84.93-4.43.92q-16.19-.09-32.36,0a8.19,8.19,0,0,1-5.8-2.13A31.47,31.47,0,0,1,34.14,76.73q0-7.73,0-15.43c0-4.84,2.58-7.44,7.4-7.45,9.57,0,19.14.18,28.7-.07a8.2,8.2,0,0,1,8.49,7.77C78.82,65.47,75.1,69,70.63,69c-5.07.09-10.14,0-15.21,0-1.41,0-2.74.08-2.81,1.81s1.32,1.81,2.57,1.87c7.37.38,10,4.56,10.34,11.37.08,1.44,0,3.29,1.84,3.29s2.07-1.71,2-3.37c-.19-3.71-.89-7.22-3.38-10.15A3.61,3.61,0,0,1,65.63,72.83Z"/><path class="cls-1" d="M70.06,30.51c0,5.93,0,11.86,0,17.78,0,1.28-.34,1.81-1.68,1.8-4.64-.05-9.29-.06-13.93,0-1.46,0-1.82-.6-1.78-1.94.28-11.92.48-23.85.78-35.77.11-4.16,3.74-7.18,8.37-7.16,4.41,0,7.86,3.13,7.9,7.3.07,6,0,12,0,18Z"/><path class="cls-1" d="M67.78,119.39c-7.65,0-15.29,0-22.93,0-1.76,0-2.41-.48-2.29-2.31a66.84,66.84,0,0,0,0-7.49c-.09-1.7.46-2.23,2.18-2.21,10.28.08,20.57.07,30.85.08,5.21,0,10.43.07,15.64,0,1.4,0,1.72.49,1.7,1.72,0,2.72-.06,5.43,0,8.15.06,1.56-.42,2.11-2.06,2.09C83.21,119.35,75.49,119.39,67.78,119.39Z"/><path class="cls-1" d="M87.84,49.83c0,3.85.07,7.7,0,11.55A5.48,5.48,0,0,1,82.68,67c-1.18.14-1.6-.19-1.16-1.43,2.23-6.37-.22-11.87-6.41-14.77a3,3,0,0,1-1.42-2.17c-.19-3.27-.16-6.55-.17-9.83a7.11,7.11,0,0,1,14.21-.26c.08,3.77,0,7.55,0,11.33Z"/><path class="cls-1" d="M103.69,51c0,3.07,0,6.14,0,9.21a6.42,6.42,0,0,1-6,6.36c-2.93,0-6-2.93-6.08-6.12q-.22-9.32-.21-18.64c0-3.75,2.55-6.66,5.74-6.9,3.46-.26,6.42,2.6,6.52,6.44.08,3.22,0,6.43,0,9.65Z"/><path class="cls-1" d="M31.8,53.86c.24-5,.06-10.06.87-15,.67-4.13,4.56-6.36,8.62-6a8.18,8.18,0,0,1,7.47,7.3c.32,2.74.18,5.54.26,8.32,0,1.2-.58,1.65-1.73,1.59-.78,0-1.57,0-2.35,0C38.68,50.11,37.49,49.77,31.8,53.86Z"/></svg>