<svg id="Layer_1" data-name="Layer 1" xmlns="http://www.w3.org/2000/svg" viewBox="0 0 128 128"><defs><style>.cls-1{fill:#fff;}</style></defs><path d="M88.43,54.23c4.57-2,9-4.29,13.72-5.9a22.31,22.31,0,0,1,16.14.27c4.72,1.95,7.15,6,6.39,10.65a9.9,9.9,0,0,1-4.82,7A144.28,144.28,0,0,1,107,73c-8.44,3.93-15.3,9.43-18.9,18.28a42.24,42.24,0,0,1-7.73,12.23,2.8,2.8,0,0,0-.37,2c.18,1.28.83,2.53.86,3.81.12,4.21.06,8.42.07,12.64,0,3.35-1.15,4.53-4.51,4.52q-25.6,0-51.21-.1c-3.72,0-4.57-.84-4.59-4.5q0-6.11.08-12.21c0-1.19.37-2.36.4-3.55a4.54,4.54,0,0,0-.46-2.38c-1.85-3-4.08-5.68-5.71-8.74a29.68,29.68,0,0,1-3.37-15.3,4,4,0,0,0-1.42-3.08c-1.41-1.54-3.19-3.25-3.55-5.13A193.88,193.88,0,0,1,3.21,48.73c-.53-7.69,8-13.12,15-10A1.75,1.75,0,0,0,20.77,38a11.26,11.26,0,0,1,12.34-4.79c1.3.28,2.56.77,3.87,1.17,3.87-8.82,10.57-10.91,19.5-7.88,0-1.36,0-2.47,0-3.58,0-4-.93-8.05.46-12.08A14,14,0,0,1,72.1,1.61,13.73,13.73,0,0,1,83.71,14.76c.13,9.07.15,18.14.39,27.2a44.17,44.17,0,0,0,2.6,13.11C87.45,54.71,87.93,54.45,88.43,54.23Zm-47,17.34A10.12,10.12,0,0,1,27,73.69c-1-.71-1.64-1-2.4.22a8.82,8.82,0,0,1-6.37,3.91c-1.33.23-1.8.74-1.77,2.09.16,9.9,4.2,17.9,11.75,24.2a7.1,7.1,0,0,0,4.89,1.67c11.79-.08,23.57,0,35.35,0a6.27,6.27,0,0,0,3.68-1.19A40.89,40.89,0,0,0,84,88.4c4-9.46,11.44-15.59,20.67-19.78,3.89-1.76,7.67-3.76,11.44-5.77a8.47,8.47,0,0,0,2.56-2.21c2-2.63,1.42-5.29-1.49-7-3.72-2.15-7.69-2-11.64-1.1-8.9,2-16.45,6.72-23.75,11.91-2.15,1.53-4.06,3.39-6.25,4.85a16.83,16.83,0,0,1-4.32,1.73Q57.45,75.33,54.08,89.3c-.15.63-.14,1.42-.52,1.83a3.72,3.72,0,0,1-2.13,1.13c-.36,0-1.17-1-1.17-1.57,0-3.9,1.59-7.37,3.55-10.61,3.35-5.53,7.95-9.84,14.22-11.71,4.63-1.38,7.91-4.68,11.86-7,2.53-1.5,2.44-3.22,1.69-5.62C79.35,48.63,79,41.31,79,33.92c0-6.42,0-12.85-.27-19.27A8.7,8.7,0,0,0,65.52,7.71,8.81,8.81,0,0,0,61.08,16q.78,18.6,1.61,37.2c.16,3.73.22,7.43-2,10.72C57,69.37,50.42,71.49,44.53,67.4a3.88,3.88,0,0,0-.61-.24A35.56,35.56,0,0,1,41.39,71.57Zm-14,38c-1.27,0-1.86.37-1.84,1.69,0,2.78.05,5.56,0,8.35,0,1.4.61,1.89,1.94,1.88,3.35,0,6.71,0,10.07,0H71.41c1,0,2-.11,3-.09,1.22,0,1.62-.56,1.6-1.7,0-2.79-.07-5.57,0-8.36,0-1.47-.58-1.75-1.93-1.74-7.78.06-15.56,0-23.34,0v-.06C43,109.62,35.18,109.64,27.4,109.6ZM43.23,58.83a8.21,8.21,0,0,0,7.1,6.93c3.26.32,6.87-2.07,8.09-5.53a11,11,0,0,0,.73-4.18c-.44-6.62-.94-13.24-1.62-19.84-.48-4.68-6.47-7.55-11-5.47-3.09,1.42-4.83,3.61-4.6,7.19.14,2.13,0,4.28,0,6.42l-.23,0C42.24,49.2,42.83,54,43.23,58.83Zm-5-9.4a36.69,36.69,0,0,0-1.35-7.28A6.74,6.74,0,0,0,28.73,38a7.53,7.53,0,0,0-5.25,7.9Q25,56.38,26.59,66.82c.48,3,4,5.55,7.1,5.28,3.49-.3,6.46-3.86,6.37-8C39.49,59.45,38.91,54.44,38.23,49.43ZM22.83,67.61c-.31-3.69-1-7.34-1.49-11-.39-2.75-.77-5.5-1.25-8.23A6.16,6.16,0,0,0,15.5,43a5.32,5.32,0,0,0-6.41,2.62,8,8,0,0,0-.92,4.46c.73,6.3,1.66,12.58,2.63,18.84A6.2,6.2,0,0,0,17,74.11,6,6,0,0,0,22.83,67.61Z"/><path class="cls-1" d="M43.92,67.16a35.56,35.56,0,0,1-2.53,4.41A10.12,10.12,0,0,1,27,73.69c-1-.71-1.64-1-2.4.22a8.82,8.82,0,0,1-6.37,3.91c-1.33.23-1.8.74-1.77,2.09.16,9.9,4.2,17.9,11.75,24.2a7.1,7.1,0,0,0,4.89,1.67c11.79-.08,23.57,0,35.35,0a6.27,6.27,0,0,0,3.68-1.19A40.89,40.89,0,0,0,84,88.4c4-9.46,11.44-15.59,20.67-19.78,3.89-1.76,7.67-3.76,11.44-5.77a8.47,8.47,0,0,0,2.56-2.21c2-2.63,1.42-5.29-1.49-7-3.72-2.15-7.69-2-11.64-1.1-8.9,2-16.45,6.72-23.75,11.91-2.15,1.53-4.06,3.39-6.25,4.85a16.83,16.83,0,0,1-4.32,1.73Q57.45,75.33,54.08,89.3c-.15.63-.14,1.42-.52,1.83a3.72,3.72,0,0,1-2.13,1.13c-.36,0-1.17-1-1.17-1.57,0-3.9,1.59-7.37,3.55-10.61,3.35-5.53,7.95-9.84,14.22-11.71,4.63-1.38,7.91-4.68,11.86-7,2.53-1.5,2.44-3.22,1.69-5.62C79.35,48.63,79,41.31,79,33.92c0-6.42,0-12.85-.27-19.27A8.7,8.7,0,0,0,65.52,7.71,8.81,8.81,0,0,0,61.08,16q.78,18.6,1.61,37.2c.16,3.73.22,7.43-2,10.72C57,69.37,50.42,71.49,44.53,67.4A3.88,3.88,0,0,0,43.92,67.16Z"/><path class="cls-1" d="M50.74,109.62c-7.78,0-15.56,0-23.34,0-1.27,0-1.86.37-1.84,1.69,0,2.78.05,5.56,0,8.35,0,1.4.61,1.89,1.94,1.88,3.35,0,6.71,0,10.07,0H71.41c1,0,2-.11,3-.09,1.22,0,1.62-.56,1.6-1.7,0-2.79-.07-5.57,0-8.36,0-1.47-.58-1.75-1.93-1.74-7.78.06-15.56,0-23.34,0Z"/><path class="cls-1" d="M41.73,44.39c.51,4.81,1.1,9.62,1.5,14.44a8.21,8.21,0,0,0,7.1,6.93c3.26.32,6.87-2.07,8.09-5.53a11,11,0,0,0,.73-4.18c-.44-6.62-.94-13.24-1.62-19.84-.48-4.68-6.47-7.55-11-5.47-3.09,1.42-4.83,3.61-4.6,7.19.14,2.13,0,4.28,0,6.42Z"/><path class="cls-1" d="M40.06,64.08c-.57-4.63-1.15-9.64-1.83-14.65a36.69,36.69,0,0,0-1.35-7.28A6.74,6.74,0,0,0,28.73,38a7.53,7.53,0,0,0-5.25,7.9Q25,56.38,26.59,66.82c.48,3,4,5.55,7.1,5.28C37.18,71.8,40.15,68.24,40.06,64.08Z"/><path class="cls-1" d="M17,74.11a6,6,0,0,0,5.87-6.5c-.31-3.69-1-7.34-1.49-11-.39-2.75-.77-5.5-1.25-8.23A6.16,6.16,0,0,0,15.5,43a5.32,5.32,0,0,0-6.41,2.62,8,8,0,0,0-.92,4.46c.73,6.3,1.66,12.58,2.63,18.84A6.2,6.2,0,0,0,17,74.11Z"/></svg>