<svg id="Layer_1" data-name="Layer 1" xmlns="http://www.w3.org/2000/svg" viewBox="0 0 128 128"><defs><style>.cls-1{fill:#fff;}</style></defs><path d="M67.17,31.81c3.48-.8,6.45-1.91,9.46-2.06,3.38-.17,6.28,1.5,8.58,4.14a2.46,2.46,0,0,0,2.31.37c7.67-4,16.17,1.16,16.41,9.88.18,6.43.19,12.86.09,19.28a9.66,9.66,0,0,1-1.24,4.69,13.4,13.4,0,0,0-1.69,7.79c.27,7.24-.43,14.31-4.09,20.74-1.58,2.76-3.54,5.3-5.48,8.16,2.23,1.66,1.69,4.33,1.69,6.86,0,3.72,0,7.43,0,11.14,0,2.55-1.19,3.7-3.66,3.7q-26.36,0-52.7-.06c-2.87,0-3.87-1.06-3.86-3.87,0-4.36-.08-8.71.06-13.07,0-1.41.71-2.79,1-4.21a2.16,2.16,0,0,0-.28-1.64c-7-7.77-9.55-17-9.21-27.27q.27-8.13.11-16.27c-.12-6.19-.6-12.38-.7-18.57A13.55,13.55,0,0,1,33.38,28.2C38,26.77,42.29,28,46,31c1,.79,1.61.88,2.54,0A13.45,13.45,0,0,1,67.17,31.81ZM60.88,74.9c.5.91.72,1.41,1,1.84,2.14,3.07,2.58,6.62,2.76,10.19.06,1.26-.18,2.75-2,2.65-1.67-.09-1.74-1.39-1.77-2.66,0-.71,0-1.43-.11-2.14-.57-5.54-3.41-9.53-9.59-9.73a3.49,3.49,0,0,1-1.87-.29A2.92,2.92,0,0,1,48,72.84c0-.55.92-1.21,1.58-1.53a4.76,4.76,0,0,1,1.9-.09c5.07,0,10.15.1,15.21-.1A7.55,7.55,0,1,0,66.12,56l-28.5.05c-5.68,0-8.12,2.37-8.16,8-.05,5.14-.09,10.28,0,15.42a31.21,31.21,0,0,0,12.91,25.38,5.5,5.5,0,0,0,3.1,1q17.48.09,34.93,0a5.31,5.31,0,0,0,2.94-1c10.42-7.73,13.75-18.45,12.77-30.9,0-.43-.79-1.21-1.07-1.15a9.64,9.64,0,0,1-9.39-3.17c-2.56,1.13-4.81,2.88-7.13,3-3.36.12-6.49.35-9.53,1.88a6.78,6.78,0,0,1-2.73.3C64.65,74.93,63,74.9,60.88,74.9ZM63,121.51c7.78,0,15.55,0,23.33,0,1.52,0,2.18-.41,2.08-2.07-.14-2.49-.11-5,0-7.49.06-1.72-.52-2.36-2.33-2.33-5.34.11-10.7,0-16,0-10,0-20,0-30,0-1.64,0-2.28.43-2.15,2.2a76.25,76.25,0,0,1,0,7.71c0,1.47.42,2,2,2C47.57,121.47,55.27,121.51,63,121.51ZM86.75,53.68h.09c0,3,0,6,0,9,.07,3.59,2.71,6.59,5.87,6.79s6.1-2.38,6.36-6.17c.22-3.33,0-6.68,0-10a92.76,92.76,0,0,0-.24-9.59c-.45-3.89-3.07-6.06-6.38-5.85-3.12.21-5.66,3.25-5.7,6.9C86.73,47.69,86.75,50.69,86.75,53.68Zm-3.49-1.34H83c0-3.49,0-7,0-10.48,0-4.72-3.22-7-6.82-7.34-4.07-.34-7.23,2.93-7.29,7.25q-.08,4.71.12,9.41a2.2,2.2,0,0,0,1.09,1.66c6.53,2.55,9.14,9.76,6.74,15-.16.34-.23,1-.06,1.14a1.89,1.89,0,0,0,1.34.22A6,6,0,0,0,83.24,63C83.33,59.47,83.26,55.91,83.26,52.34Zm-54.41,2,.46.46c3.36-2.79,7.3-2.51,11.2-2.47,1.14,0,2.28,0,3.42,0s1.81-.45,1.8-1.76c0-3.2.13-6.41,0-9.62-.11-4.23-3.87-8.22-7.71-8.38-4.73-.19-8.85,3.06-9.14,7.73S28.85,49.67,28.85,54.35Zm28.58-2v-.06c2.07,0,4.13,0,6.2,0,1.07,0,1.55-.36,1.54-1.49,0-3.7,0-7.41-.06-11.11-.11-4.77-3.73-6.92-7.35-7-4.85-.16-8.1,2.95-8.2,7.35-.08,3.48,0,7-.19,10.46-.06,1.47.53,1.9,1.86,1.88C53.3,52.31,55.36,52.35,57.43,52.35Z"/><path class="cls-1" d="M60.88,74.9c2.16,0,3.77,0,5.39,0a6.78,6.78,0,0,0,2.73-.3c3-1.53,6.17-1.76,9.53-1.88,2.32-.08,4.57-1.83,7.13-3a9.64,9.64,0,0,0,9.39,3.17c.28-.06,1,.72,1.07,1.15,1,12.45-2.35,23.17-12.77,30.9a5.31,5.31,0,0,1-2.94,1Q63,106,45.48,106a5.5,5.5,0,0,1-3.1-1A31.21,31.21,0,0,1,29.47,79.53c-.1-5.14-.06-10.28,0-15.42,0-5.65,2.48-8,8.16-8L66.12,56a7.55,7.55,0,1,1,.61,15.08c-5.06.2-10.14.08-15.21.1a4.76,4.76,0,0,0-1.9.09c-.66.32-1.55,1-1.58,1.53a2.92,2.92,0,0,0,1.25,1.92,3.49,3.49,0,0,0,1.87.29c6.18.2,9,4.19,9.59,9.73.07.71.09,1.43.11,2.14,0,1.27.1,2.57,1.77,2.66,1.85.1,2.09-1.39,2-2.65-.18-3.57-.62-7.12-2.76-10.19C61.6,76.31,61.38,75.81,60.88,74.9Z"/><path class="cls-1" d="M63,121.51c-7.71,0-15.41,0-23.12,0-1.54,0-2-.5-2-2a76.25,76.25,0,0,0,0-7.71c-.13-1.77.51-2.21,2.15-2.2,10,0,20,0,30,0,5.35,0,10.71.07,16,0,1.81,0,2.39.61,2.33,2.33-.1,2.49-.13,5,0,7.49.1,1.66-.56,2.08-2.08,2.07C78.53,121.49,70.76,121.51,63,121.51Z"/><path class="cls-1" d="M86.75,53.68c0-3,0-6,0-9,0-3.65,2.58-6.69,5.7-6.9,3.31-.21,5.93,2,6.38,5.85a92.76,92.76,0,0,1,.24,9.59c0,3.35.22,6.7,0,10-.26,3.79-3.13,6.38-6.36,6.17s-5.8-3.2-5.87-6.79c-.06-3,0-6,0-9Z"/><path class="cls-1" d="M83.26,52.34c0,3.57.07,7.13,0,10.7a6,6,0,0,1-5.08,6.2A1.89,1.89,0,0,1,76.82,69c-.17-.1-.1-.8.06-1.14,2.4-5.28-.21-12.49-6.74-15a2.2,2.2,0,0,1-1.09-1.66q-.19-4.69-.12-9.41c.06-4.32,3.22-7.59,7.29-7.25,3.6.29,6.82,2.62,6.82,7.34,0,3.49,0,7,0,10.48Z"/><path class="cls-1" d="M28.85,54.35c0-4.68-.23-9.38.07-14s4.41-7.92,9.14-7.73c3.84.16,7.6,4.15,7.71,8.38.09,3.21-.06,6.42,0,9.62,0,1.31-.56,1.8-1.8,1.76s-2.28,0-3.42,0c-3.9,0-7.84-.32-11.2,2.47Z"/><path class="cls-1" d="M57.43,52.35c-2.07,0-4.13,0-6.2,0-1.33,0-1.92-.41-1.86-1.88.15-3.48.11-7,.19-10.46.1-4.4,3.35-7.51,8.2-7.35,3.62.12,7.24,2.27,7.35,7,.09,3.7,0,7.41.06,11.11,0,1.13-.47,1.51-1.54,1.49-2.07,0-4.13,0-6.2,0Z"/></svg>