<svg id="Layer_1" data-name="Layer 1" xmlns="http://www.w3.org/2000/svg" viewBox="0 0 128 128"><defs><style>.cls-1{fill:#fff;}</style></defs><path d="M53.15,39.64c1.63-4.46,3.14-8.52,4.58-12.6,1.79-5,3.5-10.11,5.31-15.14,1.51-4.2,3.57-8,8.14-9.6,5.32-1.88,10-.28,14.19,3,4,3.13,4.82,7.51,3.8,12.18-.87,3.95-2.24,7.8-3.39,11.69-.21.74-.39,1.49-.55,2.09,2.45.6,4.73,1,6.94,1.72,2.78.85,4.29,3.14,5.82,5.42a2.27,2.27,0,0,0,1.91.89c8.5-2.31,15.88,4.65,13.7,13.83-1.51,6.38-3.37,12.69-5.48,18.89-.71,2.08-2.69,3.73-4,5.61-.51.7-1.28,1.48-1.29,2.24A36.74,36.74,0,0,1,94,103.41c-.78.94-1,1.48-.08,2.48a4.17,4.17,0,0,1,.78,2.55c.07,4.71,0,9.43,0,14.14,0,3-1,3.92-4,3.92H38.17c-2.54,0-3.69-1-3.72-3.58,0-4.86,0-9.72,0-14.57,0-.42-.05-1,.19-1.24,2-2,.61-3.4-.7-5-5.7-7.06-8.09-15.26-8-24.27,0-3.64-.1-7.28,0-10.92.15-3.9.64-7.78.79-11.68.23-6.12-2.39-11.51-4.65-17-2.46-5.93-5.38-11.71-7.26-17.82-2.11-6.88-.32-12.26,5.71-16.23,4.54-3,12.08-3.11,16.75,1.87a24.8,24.8,0,0,1,4.28,7.08c3.69,8.42,7.16,16.94,10.72,25.42A9.54,9.54,0,0,0,53.15,39.64ZM62.78,75c0,.59,0,.76.08.87.2.37.44.73.67,1.08a17.43,17.43,0,0,1,2.54,10.85c0,.65-1,1.25-1.59,1.87a20.5,20.5,0,0,1-1.85-1.88c-.21-.28,0-.83-.08-1.26C62,79.92,59.81,75.24,52.05,75c-1.45,0-2.66-.52-2.56-2.17s1.49-1.62,2.75-1.63c5.43,0,10.85.05,16.28-.1a7.49,7.49,0,0,0,7-7.52,7.36,7.36,0,0,0-7.23-7.49c-10.21-.07-20.42,0-30.63-.1-3.3,0-6.81,3.45-6.71,6.7.18,5.92-.11,11.86.09,17.78.34,10.11,4.77,18.19,12.73,24.35a5.2,5.2,0,0,0,2.9,1.1c11,.07,22-.19,33,.12,3.8.11,6.18-1.52,8.54-3.88.45-.45.91-.9,1.34-1.38a31.45,31.45,0,0,0,8.31-20.37,1.78,1.78,0,0,0-1.7-2.18,8.93,8.93,0,0,1-6.24-4.14c-.76-1.23-1.42-1.57-2.89-.88a9.39,9.39,0,0,1-9.76-.72c-1-.68-1.5-.69-2.38,0A11.7,11.7,0,0,1,66.66,75C65.42,74.87,64.16,75,62.78,75ZM32,53.43a46.52,46.52,0,0,1,6.62-1c9.27-.11,18.55-.07,27.82,0a18.8,18.8,0,0,1,5.08.6c1.51.45,1.85-.13,2.2-1.35q1.81-6.37,3.77-12.72C79.72,31.6,82.11,24.36,84.22,17a8.24,8.24,0,0,0,0-5.22c-1.47-3.3-4.54-4.74-8.06-5.17-3.18-.4-5.4,1-6.83,3.73A38.84,38.84,0,0,0,67,15.44c-4,11-7.82,22-11.8,33a2.84,2.84,0,0,1-1.85,1.68,2.67,2.67,0,0,1-2-1.43c-2.45-5.46-4.74-11-7.11-16.49-2.94-6.81-5.73-13.69-8.92-20.38C33.31,7.53,29,6.08,24.75,7.62A8.51,8.51,0,0,0,19.34,18,55,55,0,0,0,22,25.42c2.72,6.73,5.63,13.4,8.22,20.19C31.16,48.1,31.42,50.86,32,53.43Zm32.46,68.12h0c7.78,0,15.56,0,23.34,0,1.44,0,2.06-.38,2-1.93-.11-2.78-.1-5.57,0-8.35,0-1.23-.41-1.6-1.61-1.6q-23.44,0-46.88,0c-1.55,0-2,.59-1.95,2,.06,2.5.1,5,0,7.49-.1,1.91.62,2.41,2.48,2.39C49.31,121.49,56.88,121.55,64.44,121.55ZM82.73,70.78c2.5-.23,4.73-1.54,5.3-3.58,2-7.26,4.08-14.53,6-21.84A6.87,6.87,0,0,0,89,37a7.26,7.26,0,0,0-8.57,4.65c-1.28,4.07-2.47,8.17-3.49,12.31a5.09,5.09,0,0,0,.5,3.35c1.7,3.15,2.53,6.29,1.35,9.84a2.85,2.85,0,0,0,.91,2.4A11.38,11.38,0,0,0,82.73,70.78Zm26.39-20c0-3.81-2.17-6.49-5.06-7-2.55-.47-6,1.68-6.82,4.46-1.75,5.8-3.48,11.6-5.07,17.44-1.19,4.39.56,7.74,4.38,8.88,3,.89,6.14-1.33,7.42-5.45,1-3.4,1.92-6.86,2.89-10.29C107.66,55.94,108.48,53.07,109.12,50.8Z"/><path class="cls-1" d="M62.78,75c1.38,0,2.64-.08,3.88,0a11.7,11.7,0,0,0,8.22-2.45c.88-.67,1.39-.66,2.38,0a9.39,9.39,0,0,0,9.76.72c1.47-.69,2.13-.35,2.89.88a8.93,8.93,0,0,0,6.24,4.14,1.78,1.78,0,0,1,1.7,2.18,31.45,31.45,0,0,1-8.31,20.37c-.43.48-.89.93-1.34,1.38-2.36,2.36-4.74,4-8.54,3.88-11-.31-22,0-33-.12a5.2,5.2,0,0,1-2.9-1.1c-8-6.16-12.39-14.24-12.73-24.35-.2-5.92.09-11.86-.09-17.78-.1-3.25,3.41-6.72,6.71-6.7,10.21.08,20.42,0,30.63.1a7.36,7.36,0,0,1,7.23,7.49,7.49,7.49,0,0,1-7,7.52c-5.43.15-10.85.09-16.28.1-1.26,0-2.64,0-2.75,1.63S50.6,75,52.05,75c7.76.2,9.94,4.88,10.5,11.44,0,.43-.13,1,.08,1.26a20.5,20.5,0,0,0,1.85,1.88C65,89,66,88.4,66.07,87.75A17.43,17.43,0,0,0,63.53,76.9c-.23-.35-.47-.71-.67-1.08C62.79,75.71,62.83,75.54,62.78,75Z"/><path class="cls-1" d="M32,53.43c-.56-2.57-.82-5.33-1.77-7.82-2.59-6.79-5.5-13.46-8.22-20.19A55,55,0,0,1,19.34,18,8.51,8.51,0,0,1,24.75,7.62c4.28-1.54,8.56-.09,10.63,4.24,3.19,6.69,6,13.57,8.92,20.38,2.37,5.49,4.66,11,7.11,16.49a2.67,2.67,0,0,0,2,1.43,2.84,2.84,0,0,0,1.85-1.68c4-11,7.85-22,11.8-33a38.84,38.84,0,0,1,2.24-5.07c1.43-2.72,3.65-4.13,6.83-3.73,3.52.43,6.59,1.87,8.06,5.17a8.24,8.24,0,0,1,0,5.22c-2.11,7.33-4.5,14.57-6.75,21.86q-1.95,6.34-3.77,12.72c-.35,1.22-.69,1.8-2.2,1.35a18.8,18.8,0,0,0-5.08-.6c-9.27,0-18.55-.09-27.82,0A46.52,46.52,0,0,0,32,53.43Z"/><path class="cls-1" d="M64.44,121.55c-7.56,0-15.13-.06-22.69,0-1.86,0-2.58-.48-2.48-2.39.14-2.49.1-5,0-7.49,0-1.42.4-2,1.95-2q23.43.06,46.88,0c1.2,0,1.64.37,1.61,1.6-.07,2.78-.08,5.57,0,8.35.06,1.55-.56,1.94-2,1.93-7.78,0-15.56,0-23.34,0Z"/><path class="cls-1" d="M82.73,70.78a11.38,11.38,0,0,1-3.07-1.26,2.85,2.85,0,0,1-.91-2.4c1.18-3.55.35-6.69-1.35-9.84a5.09,5.09,0,0,1-.5-3.35c1-4.14,2.21-8.24,3.49-12.31A7.26,7.26,0,0,1,89,37a6.87,6.87,0,0,1,5,8.39c-1.89,7.31-3.92,14.58-6,21.84C87.46,69.24,85.23,70.55,82.73,70.78Z"/><path class="cls-1" d="M109.12,50.8c-.64,2.27-1.46,5.14-2.26,8-1,3.43-1.84,6.89-2.89,10.29-1.28,4.12-4.41,6.34-7.42,5.45-3.82-1.14-5.57-4.49-4.38-8.88,1.59-5.84,3.32-11.64,5.07-17.44.84-2.78,4.27-4.93,6.82-4.46C107,44.31,109.08,47,109.12,50.8Z"/></svg>